<svg id="visual" viewBox="0 0 900 600" width="900" height="600" xmlns="http://www.w3.org/2000/svg" xmlns:xlink="http://www.w3.org/1999/xlink" version="1.1"><rect x="0" y="0" width="900" height="600" fill="#000000"></rect><path d="M0 149L21.5 143.3C43 137.7 86 126.3 128.8 114.3C171.7 102.3 214.3 89.7 257.2 94C300 98.3 343 119.7 385.8 120.7C428.7 121.7 471.3 102.3 514.2 97.5C557 92.7 600 102.3 642.8 116.5C685.7 130.7 728.3 149.3 771.2 155.8C814 162.3 857 156.7 878.5 153.8L900 151L900 0L878.5 0C857 0 814 0 771.2 0C728.3 0 685.7 0 642.8 0C600 0 557 0 514.2 0C471.3 0 428.7 0 385.8 0C343 0 300 0 257.2 0C214.3 0 171.7 0 128.8 0C86 0 43 0 21.5 0L0 0Z" fill="#4AF626" stroke-linecap="round" stroke-linejoin="miter"></path></svg>